# xmcd
#
# Track frame offsets: 
#        150
#        17722
#        42587
#        60635
#        82545
#        95980
#        119157
#        145865
#        166730
#        182280
#        201985
#        223712
#        246117
#        266560
#        288235
#        310165
#
# Disc length: 4472 seconds
#
# Revision: 3
# Processed by: cddbd v1.5.2PL0 Copyright (c) Steve Scherf et al.
# Submitted via: ExactAudioCopy v1.0b6
#
DISCID=e5117610
DTITLE=Jeff Mills - The Other Day - Axis Compilation
DYEAR=1997
DGENRE=Techno
TTITLE0=Solarized
TTITLE1=Gamma Player
TTITLE2=Sleeping Giants
TTITLE3=i9
TTITLE4=Time Out Of Mind
TTITLE5=Growth
TTITLE6=Gateway Of Zen
TTITLE7=Medusa
TTITLE8=Man From Tomorrow
TTITLE9=Spider Formation
TTITLE10=Childhood (Maria's Mix)
TTITLE11=Humana
TTITLE12=Inner Life (529)
TTITLE13=Eclipse
TTITLE14=Nepta
TTITLE15=Mercury
EXTD=YEAR: 1997
EXTT0=
EXTT1=
EXTT2=
EXTT3=
EXTT4=
EXTT5=
EXTT6=
EXTT7=
EXTT8=
EXTT9=
EXTT10=
EXTT11=
EXTT12=
EXTT13=
EXTT14=
EXTT15=
PLAYORDER=
